<?xml version="1.0" standalone="no"?>
<!DOCTYPE svg PUBLIC "-//W3C//DTD SVG 20010904//EN"
 "http://www.w3.org/TR/2001/REC-SVG-20010904/DTD/svg10.dtd">
<svg version="1.0" xmlns="http://www.w3.org/2000/svg"
 width="16.000000pt" height="16.000000pt" viewBox="0 0 16.000000 16.000000"
 preserveAspectRatio="xMidYMid meet">
<metadata>
Created by potrace 1.10, written by Peter Selinger 2001-2011
</metadata>
<g transform="translate(0.000000,16.000000) scale(0.100000,-0.100000)"
fill="#000000" stroke="none">
<path d="M19 123 c-5 -15 -9 -43 -7 -62 3 -30 8 -37 35 -45 20 -5 46 -5 65 0
28 8 33 15 36 45 2 19 -2 47 -7 62 -10 24 -15 27 -61 27 -46 0 -51 -3 -61 -27z
m105 -9 c18 -47 -1 -84 -44 -84 -43 0 -62 37 -44 84 8 22 80 22 88 0z"/>
<path d="M47 114 c-4 -4 -7 -20 -7 -36 0 -32 18 -43 56 -34 21 6 25 11 22 39
-3 28 -7 32 -33 35 -17 2 -34 0 -38 -4z m58 -34 c0 -18 -6 -26 -23 -28 -24 -4
-38 18 -28 44 3 9 15 14 28 12 17 -2 23 -10 23 -28z"/>
</g>
</svg>
